<svg data-v-e1edf242="" xmlns="http://www.w3.org/2000/svg" width="139.12" height="138.593" viewBox="0 0 139.12 138.593"><path data-v-e1edf242="" d="M3214.36,704.163a0.126,0.126,0,0,0-.1-0.173l-0.34-.062c-0.13-.023-0.12-0.253.01-0.952l2.77-15.217c0.13-.7.2-0.917,0.32-0.894l0.35,0.062a0.119,0.119,0,0,0,.15-0.127,0.111,0.111,0,0,0-.1-0.147l-1.97-.358a0.17,0.17,0,0,0-.19.171l-3.61,13.105-0.02,0,1.18-13.548a0.177,0.177,0,0,0-.13-0.231l-1.95-.355a0.11,0.11,0,0,0-.13.105c-0.02.075-.03,0.15,0.08,0.17l0.36,0.065c0.11,0.02.1,0.225-.02,0.924l-1.92,10.527c-0.94,5.163-1.2,5.606-1.51,5.549l-0.03,0a0.139,0.139,0,0,0-.05.274l1.6,0.293a0.1,0.1,0,0,0,.13-0.105c0.02-.075.03-0.15-0.08-0.17l-0.17-.031c-0.51-.094-0.5-1.328.34-5.943l1.93-10.6,0.02,0-1.32,16.976c-0.01.153,0.02,0.261,0.11,0.278l0.48,0.088c0.1,0.017.14-.052,0.19-0.224l4.5-16.4,0.03,0.006-2.82,15.491c-0.13.7-.2,0.918-0.33,0.895l-0.34-.062a0.119,0.119,0,0,0-.15.126,0.112,0.112,0,0,0,.1.148l2.48,0.452A0.116,0.116,0,0,0,3214.36,704.163Zm5.2,1.639,1.76-5.482c0.05-.144.02-0.207-0.02-0.222-0.06-.019-0.1,0-0.16.164l-0.11.363c-0.32.99-1.82,4.931-3.6,4.36l-0.21-.068c-0.08-.024-0.08-0.077-0.05-0.149l2.64-8.235a0.109,0.109,0,0,1,.15-0.087l0.04,0.014c0.5,0.16.31,1.778-.08,2.985l-0.09.29c-0.05.169-.01,0.184,0.05,0.2s0.09,0,.13-0.145l2.02-6.279c0.05-.169.03-0.2-0.02-0.217s-0.11-.01-0.16.159l-0.09.266c-0.39,1.207-1.18,2.632-1.67,2.473l-0.06-.02c-0.08-.024-0.08-0.077-0.06-0.15l2.4-7.462a0.128,0.128,0,0,1,.15-0.111l0.23,0.073c1.16,0.372.7,3.207,0.02,5.309l-0.13.41c-0.05.169-.01,0.184,0.04,0.2s0.1,0,.14-0.14l1.72-5.337c0.04-.145.01-0.184-0.04-0.2l-3.92-1.258a0.117,0.117,0,0,0-.15.087c-0.02.073-.04,0.145,0.06,0.179l0.35,0.111c0.1,0.034.07,0.261-.15,0.937l-4.73,14.732c-0.22.676-.32,0.883-0.42,0.85l-0.35-.112c-0.11-.034-0.13.039-0.15,0.111a0.1,0.1,0,0,0,.06.155l4.32,1.383C3219.46,705.957,3219.52,705.947,3219.56,705.8Zm13.08-13.486a0.108,0.108,0,0,0-.05-0.161l-1.66-.752a0.1,0.1,0,0,0-.15.069c-0.04.07-.07,0.139,0.03,0.185l0.23,0.1c0.52,0.236.25,1.5-1.67,5.731l-3.1,6.864-0.03-.013,3.41-13.351a0.16,0.16,0,0,0-.08-0.2l-1.75-.791a0.107,0.107,0,0,0-.15.069c-0.03.07-.06,0.139,0.04,0.185l0.33,0.15c0.1,0.046.05,0.244-.25,0.891l-4.41,9.752c-2.15,4.76-2.51,5.157-2.81,5.02l-0.03-.013a0.139,0.139,0,0,0-.11.254l1.66,0.752a0.108,0.108,0,0,0,.15-0.07c0.03-.069.06-0.139-0.04-0.184l-0.24-.111c-0.51-.229-0.23-1.5,1.68-5.725l4.26-9.4,0.01,0.006-4.09,16.3a0.2,0.2,0,0,0,.06.251l0.61,0.274c0.12,0.053.19-.027,0.24-0.142l4.9-10.838c2.16-4.761,2.51-5.158,2.82-5.02l0.02,0.013C3232.58,692.455,3232.61,692.385,3232.64,692.316Zm7.03,4.06a0.115,0.115,0,0,0-.03-0.166l-1.47-.885a0.112,0.112,0,0,0-.17.043c-0.04.066-.07,0.139,0.03,0.2l0.18,0.107c0.48,0.295.01,1.487-2.39,5.46l-4.03,6.666c-1.31,2.171-2.39,3-3.11,2.561-0.68-.41-0.26-1.575.56-2.921l7.11-11.79c0.37-.608.51-0.787,0.62-0.722l0.3,0.18a0.126,0.126,0,0,0,.19-0.064,0.123,0.123,0,0,0-.05-0.174l-2.15-1.3a0.12,0.12,0,0,0-.18.043,0.125,0.125,0,0,0,.03.2l0.3,0.18c0.11,0.066.02,0.277-.35,0.885l-6.72,11.139c-1.08,1.78-1.38,3.819-.19,4.539,1.14,0.689,2.39-.276,3.77-2.556l4.17-6.9c2.7-4.473,3.09-4.825,3.38-4.653l0.02,0.016C3239.59,696.506,3239.63,696.441,3239.67,696.376Zm2.26,25.5a0.123,0.123,0,0,0,.02-0.2l-0.23-.255c-0.09-.094.06-0.272,0.58-0.754l11.34-10.511c0.53-.482.71-0.614,0.8-0.521l0.24,0.256a0.115,0.115,0,0,0,.19-0.011,0.109,0.109,0,0,0,.01-0.179l-1.35-1.466a0.176,0.176,0,0,0-.26.022l-10.75,8.317-0.01-.012,9.07-10.132a0.189,0.189,0,0,0,.03-0.266l-1.35-1.454a0.1,0.1,0,0,0-.16,0c-0.06.052-.12,0.1-0.04,0.185l0.25,0.267c0.07,0.082-.06.243-0.58,0.725l-7.85,7.272c-3.85,3.566-4.32,3.766-4.53,3.533l-0.03-.023a0.115,0.115,0,0,0-.19.01,0.123,0.123,0,0,0-.01.179l1.11,1.2a0.112,0.112,0,0,0,.17,0c0.05-.052.11-0.1,0.03-0.185l-0.12-.128c-0.35-.384.4-1.362,3.84-4.55l7.91-7.323,0.01,0.012-11.24,12.79a0.229,0.229,0,0,0-.08.288l0.33,0.361c0.07,0.07.15,0.041,0.29-.068l13.43-10.416,0.03,0.023-11.56,10.7c-0.52.483-.71,0.615-0.79,0.522l-0.24-.256a0.125,0.125,0,0,0-.2.01,0.115,0.115,0,0,0,0,.179l1.71,1.85A0.115,0.115,0,0,0,3241.93,721.879Zm3.19,4.438,4.69-3.336c0.13-.089.14-0.157,0.11-0.2s-0.07-.063-0.22.04l-0.31.22c-0.84.6-4.4,2.861-5.49,1.337l-0.13-.181c-0.04-.065-0.01-0.107.05-0.151l7.05-5.011a0.109,0.109,0,0,1,.17.016l0.03,0.039c0.3,0.427-.82,1.611-1.85,2.346l-0.25.176c-0.15.1-.12,0.142-0.08,0.193s0.07,0.05.19-.038l5.37-3.821c0.15-.1.15-0.143,0.12-0.182s-0.08-.076-0.23.027l-0.22.162c-1.04.735-2.52,1.4-2.83,0.976l-0.03-.052c-0.05-.065-0.02-0.107.05-0.151l6.38-4.541a0.131,0.131,0,0,1,.19,0l0.14,0.194c0.71,1-1.36,2.99-3.16,4.268l-0.35.25c-0.15.1-.12,0.142-0.09,0.18s0.08,0.063.2-.025l4.57-3.248c0.12-.088.11-0.141,0.09-0.18l-2.39-3.359a0.111,0.111,0,0,0-.17-0.017c-0.06.044-.12,0.088-0.06,0.178l0.21,0.3c0.07,0.09-.1.248-0.68,0.66l-12.61,8.964c-0.58.411-.78,0.518-0.85,0.427l-0.21-.3c-0.06-.09-0.12-0.046-0.19,0a0.114,0.114,0,0,0-.04.164l2.63,3.695C3244.95,726.381,3245,726.405,3245.12,726.317Zm18.54-3.014a0.107,0.107,0,0,0,.05-0.158l-0.88-1.6a0.1,0.1,0,0,0-.16-0.036c-0.07.037-.14,0.074-0.08,0.171l0.12,0.222c0.28,0.5-.7,1.349-4.77,3.6l-6.59,3.644-0.02-.028,10.73-8.66a0.17,0.17,0,0,0,.05-0.212l-0.93-1.679a0.1,0.1,0,0,0-.16-0.036c-0.07.037-.13,0.074-0.08,0.171l0.18,0.319c0.05,0.1-.11.223-0.73,0.567l-9.37,5.178c-4.58,2.528-5.1,2.635-5.26,2.343l-0.01-.028a0.128,0.128,0,0,0-.2-0.037,0.131,0.131,0,0,0-.05.172l0.88,1.6a0.115,0.115,0,0,0,.17.036c0.06-.037.13-0.074,0.08-0.171l-0.13-.236c-0.27-.485.71-1.335,4.77-3.58l9.04-5,0.01,0.014L3247.29,730.5c-0.1.075-.15,0.154-0.1,0.237l0.32,0.583c0.06,0.111.17,0.09,0.28,0.028l10.41-5.755c4.57-2.528,5.09-2.634,5.25-2.343l0.02,0.028C3263.52,723.377,3263.59,723.34,3263.66,723.3Zm3.2,7.46a0.112,0.112,0,0,0,.08-0.15l-0.65-1.586a0.109,0.109,0,0,0-.16-0.07,0.127,0.127,0,0,0-.1.175l0.08,0.191c0.22,0.529-.88,1.2-5.18,2.948l-7.21,2.936c-2.35.957-3.71,0.965-4.03,0.187-0.3-.734.74-1.414,2.19-2.007l12.76-5.193c0.66-.268.88-0.325,0.93-0.207l0.13,0.323a0.123,0.123,0,0,0,.19.06,0.132,0.132,0,0,0,.07-0.165l-0.95-2.335a0.117,0.117,0,0,0-.17-0.07,0.123,0.123,0,0,0-.09.175l0.13,0.323c0.05,0.118-.15.233-0.81,0.5l-12.05,4.906c-1.92.785-3.39,2.236-2.86,3.528,0.5,1.234,2.08,1.208,4.54.2l7.47-3.041c4.84-1.97,5.37-2.015,5.5-1.706l0.01,0.029C3266.72,730.821,3266.79,730.792,3266.86,730.763Zm-13.47,21.8a0.123,0.123,0,0,0,.14-0.142l-0.04-.347c-0.01-.126.21-0.181,0.92-0.254l15.39-1.591c0.71-.073.94-0.065,0.95,0.061l0.04,0.347a0.117,0.117,0,0,0,.16.11,0.112,0.112,0,0,0,.11-0.139l-0.2-1.986a0.172,0.172,0,0,0-.22-0.137l-13.6.2v-0.016l13.34-2.654a0.185,0.185,0,0,0,.19-0.194l-0.21-1.97a0.1,0.1,0,0,0-.13-0.1c-0.08.008-.15,0.016-0.14,0.126l0.03,0.363c0.02,0.11-.18.163-0.89,0.236l-10.65,1.1c-5.22.54-5.71,0.416-5.75,0.1v-0.031a0.125,0.125,0,0,0-.17-0.111,0.121,0.121,0,0,0-.11.139l0.17,1.624a0.112,0.112,0,0,0,.14.1c0.07-.008.15-0.016,0.14-0.126l-0.02-.173c-0.05-.52,1.14-0.85,5.8-1.333l10.72-1.109,0.01,0.016-16.68,3.476c-0.15.032-.24,0.089-0.23,0.184l0.05,0.489c0.01,0.094.09,0.118,0.26,0.115l17.01-.261V748.7l-15.66,1.62c-0.71.073-.94,0.065-0.95-0.061l-0.04-.347a0.12,0.12,0,0,0-.16-0.11,0.118,0.118,0,0,0-.12.139l0.26,2.506A0.114,0.114,0,0,0,3253.39,752.561Zm-0.1,5.463,5.75,0.142c0.15,0,.2-0.042.2-0.09s-0.02-.1-0.2-0.1l-0.38-.009c-1.04-.026-5.24-0.351-5.19-2.221v-0.222a0.1,0.1,0,0,1,.13-0.092l8.65,0.213a0.107,0.107,0,0,1,.12.114v0.047c-0.01.523-1.62,0.8-2.89,0.77l-0.3-.008c-0.18,0-.18.043-0.18,0.107,0,0.047.02,0.08,0.18,0.083l6.59,0.163c0.17,0,.2-0.027.2-0.075s-0.02-.111-0.2-0.115l-0.28-.007c-1.26-.032-2.85-0.388-2.84-0.911V755.75c0-.079.05-0.094,0.13-0.092l7.83,0.193a0.128,0.128,0,0,1,.15.115V756.2c-0.03,1.22-2.88,1.578-5.09,1.524l-0.43-.011c-0.18,0-.18.044-0.18,0.091s0.02,0.1.18,0.1l5.6,0.138c0.15,0,.18-0.044.18-0.091l0.1-4.12a0.107,0.107,0,0,0-.12-0.114c-0.08,0-.16,0-0.16.107l-0.01.364c0,0.111-.23.137-0.94,0.12l-15.46-.381c-0.71-.018-0.94-0.055-0.94-0.166l0.01-.364c0-.111-0.07-0.113-0.15-0.115a0.109,0.109,0,0,0-.13.108l-0.11,4.532C3253.11,757.973,3253.13,758.021,3253.29,758.024Zm16.63,8.708a0.116,0.116,0,0,0,.15-0.092l0.24-1.806a0.106,0.106,0,0,0-.11-0.127c-0.07-.011-0.15-0.021-0.16.089l-0.04.251c-0.07.565-1.37,0.658-5.96,0.022l-7.46-1.033V764l13.77-.509a0.169,0.169,0,0,0,.17-0.137l0.26-1.9a0.111,0.111,0,0,0-.11-0.128c-0.07-.01-0.15-0.02-0.17.089l-0.05.362c-0.01.109-.22,0.113-0.92,0.016l-10.6-1.468c-5.17-.717-5.65-0.943-5.61-1.273l0.01-.031a0.128,0.128,0,0,0-.14-0.147,0.118,0.118,0,0,0-.14.109l-0.25,1.8a0.11,0.11,0,0,0,.11.127c0.08,0.011.15,0.021,0.17-.089l0.03-.267c0.08-.549,1.37-0.642,5.97-0.006l10.22,1.416v0.016l-16.79.7a0.181,0.181,0,0,0-.22.129l-0.09.66c-0.02.125,0.08,0.171,0.2,0.188l11.78,1.631c5.18,0.717,5.66.943,5.61,1.273V766.6C3269.77,766.711,3269.85,766.722,3269.92,766.732Zm-1.9,7.9a0.107,0.107,0,0,0,.15-0.075l0.44-1.656a0.112,0.112,0,0,0-.09-0.155,0.123,0.123,0,0,0-.18.084l-0.05.2c-0.15.552-1.43,0.43-5.92-.744l-7.53-1.97c-2.45-.642-3.55-1.454-3.34-2.266,0.2-.767,1.44-0.689,2.96-0.291l13.32,3.485c0.69,0.179.9,0.268,0.87,0.39l-0.09.338c-0.03.107,0.04,0.142,0.12,0.161a0.116,0.116,0,0,0,.15-0.091l0.64-2.438a0.111,0.111,0,0,0-.09-0.154,0.122,0.122,0,0,0-.18.084l-0.09.337c-0.03.123-.26,0.1-0.95-0.084l-12.58-3.292c-2.01-.526-4.05-0.241-4.4,1.108-0.34,1.288.94,2.213,3.51,2.886l7.8,2.041c5.06,1.322,5.51,1.6,5.42,1.926v0.03C3267.88,774.594,3267.95,774.613,3268.02,774.632Zm-23.84,9.382a0.127,0.127,0,0,0,.2-0.031l0.18-.3c0.06-.109.27-0.019,0.88,0.345l13.28,7.941c0.61,0.365.79,0.509,0.72,0.618l-0.18.3a0.125,0.125,0,0,0,.07.187,0.11,0.11,0,0,0,.17-0.044l1.03-1.714a0.176,0.176,0,0,0-.09-0.24l-11.01-7.986,0.01-.013,12.27,5.863a0.189,0.189,0,0,0,.27-0.046l1.02-1.7a0.113,0.113,0,0,0-.06-0.16c-0.06-.039-0.13-0.078-0.18.017l-0.19.313c-0.06.095-.25,0.019-0.86-0.346l-9.18-5.493c-4.51-2.7-4.83-3.092-4.67-3.364l0.02-.028c0.06-.095,0-0.147-0.07-0.186a0.119,0.119,0,0,0-.17.043l-0.84,1.4a0.11,0.11,0,0,0,.05.16c0.07,0.039.13,0.078,0.19-.017l0.09-.15c0.27-.449,1.42,0,5.45,2.408l9.24,5.532v0.014l-15.44-7.2c-0.14-.064-0.25-0.075-0.3.006l-0.25.422c-0.05.082,0,.148,0.15,0.253l13.77,9.975-0.02.027-13.51-8.084c-0.61-.365-0.79-0.509-0.73-0.618l0.18-.3a0.122,0.122,0,0,0-.06-0.187,0.119,0.119,0,0,0-.18.043l-1.29,2.164A0.113,0.113,0,0,0,3244.18,784.014Zm-3.36,4.3,4.52,3.567c0.12,0.094.19,0.088,0.22,0.051s0.04-.091-0.1-0.2l-0.3-.235c-0.82-.644-3.98-3.427-2.83-4.895l0.14-.174c0.05-.062.1-0.043,0.16,0l6.79,5.357a0.106,0.106,0,0,1,.03.166l-0.03.037c-0.33.411-1.78-.33-2.77-1.116l-0.24-.188c-0.14-.11-0.17-0.073-0.21-0.023s-0.03.078,0.09,0.172l5.18,4.085c0.14,0.11.18,0.1,0.2,0.064,0.04-.05.05-0.1-0.09-0.213l-0.21-.173c-1-.785-2.06-2.024-1.73-2.435l0.04-.05c0.05-.062.1-0.043,0.15,0l6.15,4.855a0.128,0.128,0,0,1,.05.182l-0.14.186c-0.76.958-3.25-.465-4.98-1.832l-0.34-.267c-0.14-.11-0.17-0.073-0.2-0.036s-0.04.091,0.08,0.185l4.4,3.472c0.12,0.1.17,0.073,0.2,0.036l2.55-3.235a0.108,0.108,0,0,0-.03-0.166c-0.06-.047-0.12-0.094-0.19-0.007l-0.23.286c-0.06.087-.26-0.029-0.82-0.469l-12.14-9.585c-0.56-.44-0.72-0.606-0.65-0.693l0.23-.286c0.07-.087.01-0.134-0.05-0.182a0.111,0.111,0,0,0-.17.009l-2.81,3.558C3240.71,788.17,3240.7,788.223,3240.82,788.317Zm8.11,16.931a0.1,0.1,0,0,0,.16.01l1.29-1.294a0.119,0.119,0,0,0-.01-0.168c-0.06-.053-0.11-0.107-0.19-0.028l-0.18.18c-0.4.4-1.49-.3-4.79-3.564l-5.35-5.3,0.02-.022,11.33,7.853a0.168,0.168,0,0,0,.22-0.006l1.35-1.361a0.113,0.113,0,0,0-.02-0.169c-0.05-.053-0.1-0.107-0.18-0.028l-0.26.259c-0.08.079-.24-0.042-0.75-0.541l-7.6-7.535c-3.71-3.679-3.96-4.148-3.73-4.384l0.03-.023a0.13,0.13,0,0,0-.02-0.2,0.122,0.122,0,0,0-.18,0l-1.28,1.294a0.1,0.1,0,0,0,.01.168c0.05,0.053.11,0.107,0.18,0.028l0.19-.191c0.39-.394,1.48.307,4.78,3.575l7.33,7.267-0.01.011-13.85-9.514a0.187,0.187,0,0,0-.26-0.031l-0.47.473c-0.09.09-.04,0.184,0.05,0.273l8.45,8.374c3.71,3.679,3.96,4.148,3.73,4.385l-0.02.022C3248.82,805.141,3248.87,805.194,3248.93,805.248Zm-6.25,5.179a0.112,0.112,0,0,0,.17.03l1.33-1.067a0.108,0.108,0,0,0,.02-0.179,0.118,0.118,0,0,0-.19-0.04l-0.16.129c-0.45.356-1.4-.508-4.29-4.138l-4.85-6.091c-1.58-1.984-1.97-3.292-1.31-3.816,0.62-.494,1.56.31,2.54,1.54l8.58,10.773c0.44,0.555.56,0.754,0.46,0.833l-0.28.217a0.125,0.125,0,0,0,0,.2,0.122,0.122,0,0,0,.18.02l1.97-1.571a0.112,0.112,0,0,0,.02-0.178c-0.05-.06-0.11-0.11-0.19-0.04l-0.28.217c-0.1.079-.26-0.08-0.71-0.635l-8.1-10.178c-1.3-1.626-3.1-2.62-4.19-1.75-1.04.83-.57,2.336,1.09,4.419l5.02,6.309c3.26,4.087,3.45,4.582,3.19,4.79l-0.03.02C3242.59,810.308,3242.63,810.367,3242.68,810.427Zm-24.7-6.757a0.125,0.125,0,0,0,.18.093l0.32-.133c0.11-.048.23,0.151,0.5,0.807l5.89,14.306c0.27,0.657.33,0.88,0.21,0.928l-0.32.133c-0.11.042-.09,0.118-0.06,0.189a0.109,0.109,0,0,0,.16.069l1.85-.761a0.169,0.169,0,0,0,.07-0.248l-4.04-12.982,0.01-.006,6.33,12.04a0.183,0.183,0,0,0,.24.121l1.83-.754a0.106,0.106,0,0,0,.05-0.16c-0.02-.07-0.05-0.141-0.16-0.1l-0.33.139c-0.11.042-.21-0.134-0.48-0.79l-4.07-9.9c-2-4.854-2.02-5.366-1.73-5.487l0.03-.012a0.124,0.124,0,0,0,.06-0.189,0.127,0.127,0,0,0-.17-0.069l-1.51.622a0.105,0.105,0,0,0-.05.159c0.03,0.071.06,0.141,0.16,0.1l0.16-.067c0.48-.2,1.14.848,2.92,5.187l4.1,9.967-0.01.006-8.06-15c-0.07-.135-0.15-0.21-0.24-0.174l-0.46.187c-0.09.036-.09,0.119-0.03,0.289l5.07,16.233-0.03.012-6-14.563c-0.27-.657-0.32-0.88-0.21-0.928l0.33-.133a0.13,0.13,0,0,0,.06-0.189,0.119,0.119,0,0,0-.17-0.069l-2.33.96A0.115,0.115,0,0,0,3217.98,803.67Zm-5.26,1.429,1.48,5.563c0.04,0.147.1,0.184,0.14,0.171,0.06-.016.09-0.049,0.04-0.22l-0.1-.368c-0.26-1-1.13-5.129.67-5.611l0.22-.057c0.08-.02.1,0.025,0.12,0.1l2.23,8.357a0.109,0.109,0,0,1-.07.151l-0.05.012c-0.51.134-1.22-1.328-1.55-2.553l-0.08-.294c-0.04-.172-0.09-0.159-0.15-0.143s-0.07.045-.03,0.192l1.69,6.371c0.05,0.172.09,0.188,0.13,0.176,0.06-.017.1-0.053,0.06-0.225l-0.07-.269c-0.33-1.226-.43-2.851.07-2.986l0.06-.016c0.08-.02.11,0.025,0.13,0.1l2.01,7.572a0.131,0.131,0,0,1-.06.176l-0.23.061c-1.18.314-2.33-2.321-2.9-4.452l-0.11-.417c-0.04-.172-0.09-0.159-0.13-0.147s-0.09.049-.05,0.2l1.44,5.415c0.04,0.148.09,0.16,0.14,0.148l3.98-1.061a0.115,0.115,0,0,0,.08-0.151c-0.02-.073-0.04-0.147-0.15-0.118l-0.35.094c-0.11.028-.2-0.184-0.38-0.87l-3.98-14.948c-0.19-.687-0.21-0.915-0.11-0.944l0.36-.094c0.1-.028.08-0.1,0.06-0.175a0.1,0.1,0,0,0-.14-0.094l-4.38,1.166C3212.72,804.915,3212.68,804.952,3212.72,805.1Zm-3.7,18.412a0.114,0.114,0,0,0,.13.109l1.8-.265a0.1,0.1,0,0,0,.09-0.141c-0.01-.075-0.02-0.151-0.13-0.135l-0.25.037c-0.56.083-1.02-1.132-1.69-5.724l-1.1-7.453,0.03,0,4.35,13.077a0.16,0.16,0,0,0,.18.127l1.89-.279a0.1,0.1,0,0,0,.09-0.141c-0.01-.075-0.02-0.151-0.13-0.135l-0.36.053c-0.11.017-.17-0.18-0.27-0.882l-1.56-10.589c-0.77-5.169-.68-5.694-0.35-5.743l0.03,0a0.14,0.14,0,0,0-.04-0.276l-1.81.265a0.115,0.115,0,0,0-.09.141c0.01,0.075.02,0.151,0.13,0.135l0.27-.04c0.55-.08,1,1.135,1.68,5.727l1.5,10.213-0.01,0-5.38-15.925a0.176,0.176,0,0,0-.18-0.178l-0.66.1c-0.13.018-.14,0.123-0.12,0.249l1.73,11.768c0.76,5.169.68,5.694,0.35,5.743l-0.03,0C3209,823.36,3209.01,823.436,3209.02,823.511Zm-8.11.391a0.1,0.1,0,0,0,.11.123l1.71-.049a0.107,0.107,0,0,0,.12-0.13,0.122,0.122,0,0,0-.13-0.149l-0.2.006c-0.57.017-.82-1.245-0.95-5.884l-0.23-7.782c-0.07-2.535.4-3.817,1.24-3.841,0.79-.023,1.07,1.187,1.11,2.759l0.4,13.765c0.02,0.709,0,.938-0.13.942l-0.35.01a0.123,0.123,0,0,0-.12.156,0.118,0.118,0,0,0,.13.123l2.52-.072a0.112,0.112,0,0,0,.12-0.131,0.121,0.121,0,0,0-.13-0.148l-0.35.01c-0.13,0-.16-0.224-0.18-0.933l-0.38-13c-0.06-2.079-.91-3.957-2.3-3.917-1.33.038-1.86,1.524-1.78,4.186l0.23,8.061c0.15,5.222.01,5.734-.33,5.743h-0.03C3200.9,823.749,3200.9,823.826,3200.91,823.9Zm-13.24-19.453a0.118,0.118,0,0,0,.09.174l0.34,0.07c0.13,0.025.11,0.255-.03,0.951l-3.1,15.157c-0.14.7-.22,0.913-0.35,0.888l-0.34-.07a0.117,0.117,0,0,0-.15.124,0.113,0.113,0,0,0,.1.149l1.95,0.4a0.174,0.174,0,0,0,.2-0.167l3.89-13.028,0.02,0-1.47,13.523a0.174,0.174,0,0,0,.13.233l1.94,0.4a0.107,0.107,0,0,0,.13-0.1c0.02-.075.03-0.149-0.08-0.171l-0.35-.073c-0.11-.023-0.1-0.228.04-0.923l2.15-10.486c1.05-5.144,1.31-5.581,1.63-5.517l0.03,0.006a0.139,0.139,0,0,0,.05-0.273l-1.6-.327a0.107,0.107,0,0,0-.13.1c-0.02.074-.03,0.149,0.08,0.171l0.17,0.035c0.51,0.1.47,1.339-.47,5.935l-2.16,10.561-0.02,0,1.69-16.948c0.01-.152-0.01-0.261-0.1-0.28l-0.49-.1c-0.09-.019-0.14.049-0.19,0.22l-4.85,16.3-0.03-.006,3.15-15.431c0.15-.7.22-0.913,0.35-0.887l0.34,0.069a0.117,0.117,0,0,0,.15-0.123,0.114,0.114,0,0,0-.1-0.15l-2.46-.5A0.113,0.113,0,0,0,3187.67,804.449Zm-5.18-1.757-1.87,5.443c-0.05.144-.02,0.208,0.02,0.223,0.06,0.021.1,0.007,0.16-.161l0.12-.359c0.34-.983,1.92-4.892,3.69-4.282l0.21,0.073c0.07,0.025.07,0.079,0.05,0.151l-2.82,8.176a0.11,0.11,0,0,1-.15.084l-0.04-.016c-0.5-.17-0.28-1.784.14-2.983l0.1-.288c0.06-.168.01-0.183-0.05-0.2-0.04-.015-0.08,0-0.13.142l-2.15,6.234c-0.06.168-.04,0.2,0.01,0.218s0.11,0.012.17-.156l0.09-.263c0.41-1.2,1.23-2.606,1.73-2.436l0.06,0.021c0.07,0.026.07,0.079,0.05,0.151l-2.56,7.409a0.125,0.125,0,0,1-.15.108l-0.23-.078c-1.15-.4-0.63-3.223.09-5.309l0.14-.408c0.06-.168.01-0.183-0.03-0.2s-0.1-.007-0.15.137l-1.83,5.3c-0.05.143-.01,0.183,0.03,0.2l3.9,1.344a0.114,0.114,0,0,0,.15-0.084c0.02-.072.05-0.144-0.06-0.18l-0.34-.119c-0.11-.036-0.06-0.262.17-0.933l5.04-14.627c0.23-.671.34-0.877,0.44-0.841l0.35,0.119c0.1,0.036.13-.036,0.15-0.108a0.106,0.106,0,0,0-.06-0.156l-4.29-1.478C3182.6,802.54,3182.54,802.548,3182.49,802.692ZM3169.15,815.9a0.109,0.109,0,0,0,.05.162l1.64,0.787a0.1,0.1,0,0,0,.15-0.066c0.04-.069.07-0.138-0.03-0.185l-0.23-.11c-0.51-.246-0.21-1.507,1.79-5.693l3.26-6.794,0.02,0.014-3.69,13.272a0.169,0.169,0,0,0,.07.206l1.73,0.828a0.116,0.116,0,0,0,.16-0.066c0.03-.069.06-0.138-0.04-0.186l-0.33-.157c-0.1-.048-0.04-0.245.27-0.885l4.62-9.654c2.25-4.712,2.62-5.1,2.92-4.958l0.03,0.014c0.1,0.048.14-.014,0.18-0.083a0.129,0.129,0,0,0-.06-0.169l-1.65-.787a0.106,0.106,0,0,0-.15.067c-0.04.068-.07,0.137,0.03,0.185l0.24,0.116c0.5,0.24.2,1.5-1.8,5.686l-4.46,9.311-0.01-.007,4.43-16.209a0.187,0.187,0,0,0-.05-0.252l-0.6-.287c-0.12-.055-0.19.023-0.24,0.137l-5.14,10.729c-2.25,4.713-2.61,5.1-2.92,4.958l-0.02-.014C3169.22,815.762,3169.18,815.831,3169.15,815.9Zm-6.96-4.208a0.108,0.108,0,0,0,.03.166l1.44,0.915a0.117,0.117,0,0,0,.18-0.039,0.12,0.12,0,0,0-.03-0.2l-0.17-.111c-0.48-.305.02-1.486,2.5-5.408l4.17-6.58c1.36-2.143,2.46-2.943,3.17-2.494,0.67,0.424.22,1.58-.62,2.908l-7.37,11.637c-0.38.6-.53,0.776-0.63,0.709l-0.3-.187a0.125,0.125,0,0,0-.19.061,0.129,0.129,0,0,0,.04.175l2.13,1.347a0.117,0.117,0,0,0,.18-0.039,0.12,0.12,0,0,0-.03-0.2l-0.29-.187c-0.11-.068-0.01-0.278.37-0.878l6.96-10.994c1.11-1.757,1.46-3.788.28-4.534-1.13-.712-2.4.226-3.82,2.476l-4.32,6.816c-2.79,4.414-3.2,4.758-3.48,4.58l-0.02-.017C3162.27,811.563,3162.23,811.627,3162.19,811.692Zm-0.09-23.554a0.124,0.124,0,0,0-.02.2l0.24,0.249c0.09,0.09-.05.273-0.55,0.77l-11.05,10.824c-0.51.5-.7,0.634-0.78,0.543l-0.25-.249a0.126,0.126,0,0,0-.2.016,0.116,0.116,0,0,0,0,.179l1.4,1.428a0.176,0.176,0,0,0,.26-0.029l10.51-8.615,0.01,0.011-8.78,10.382a0.18,0.18,0,0,0-.02.267l1.38,1.416a0.111,0.111,0,0,0,.17-0.009c0.05-.054.11-0.107,0.03-0.186l-0.25-.261c-0.08-.079.04-0.244,0.55-0.741l7.64-7.488c3.75-3.673,4.22-3.886,4.44-3.659l0.02,0.023a0.126,0.126,0,0,0,.2-0.016,0.118,0.118,0,0,0,0-.18l-1.14-1.166a0.111,0.111,0,0,0-.17.009c-0.05.053-.11,0.107-0.03,0.186l0.12,0.124c0.37,0.374-.36,1.373-3.71,4.656l-7.7,7.542-0.01-.012,10.88-13.1c0.1-.118.14-0.223,0.07-0.291l-0.34-.351c-0.07-.068-0.15-0.038-0.28.075l-13.15,10.789-0.02-.023,11.25-11.019c0.51-.5.69-0.634,0.78-0.543l0.24,0.249a0.125,0.125,0,0,0,.2-0.016,0.11,0.11,0,0,0,0-.179l-1.76-1.8A0.114,0.114,0,0,0,3162.1,788.138Zm-3.31-4.343-4.59,3.467c-0.13.092-.14,0.16-0.11,0.2s0.08,0.061.22-.046l0.3-.229c0.83-.626,4.33-2.984,5.45-1.492l0.14,0.178c0.04,0.063.01,0.106-.05,0.152l-6.9,5.207a0.109,0.109,0,0,1-.17-0.012l-0.03-.038c-0.31-.417.77-1.632,1.79-2.4l0.24-.183c0.14-.107.11-0.145,0.07-0.2s-0.06-.048-0.19.044l-5.26,3.97c-0.14.107-.14,0.148-0.11,0.186s0.08,0.073.23-.034l0.22-.168c1.01-.763,2.48-1.472,2.79-1.055l0.04,0.051c0.05,0.063.02,0.106-.05,0.152l-6.25,4.719a0.131,0.131,0,0,1-.19,0l-0.14-.19c-0.74-.974,1.27-3.026,3.03-4.355l0.35-.259c0.14-.107.11-0.145,0.08-0.183s-0.07-.061-0.2.031l-4.47,3.375c-0.12.092-.11,0.145-0.08,0.183l2.48,3.289a0.1,0.1,0,0,0,.16.012c0.07-.046.13-0.092,0.06-0.18l-0.22-.291c-0.07-.089.1-0.251,0.66-0.679l12.35-9.315c0.57-.428.77-0.54,0.84-0.451l0.22,0.29c0.06,0.089.12,0.043,0.18,0a0.109,0.109,0,0,0,.04-0.165l-2.73-3.618C3158.96,783.727,3158.91,783.7,3158.79,783.8Zm-18.45,3.516a0.11,0.11,0,0,0-.05.16l0.93,1.57a0.1,0.1,0,0,0,.16.031c0.07-.038.13-0.077,0.08-0.173l-0.13-.218c-0.29-.492.66-1.368,4.66-3.725l6.49-3.827,0.02,0.028-10.48,8.954a0.174,0.174,0,0,0-.05.214l0.98,1.652a0.1,0.1,0,0,0,.16.031c0.07-.039.13-0.077,0.08-0.173l-0.19-.314c-0.06-.095.1-0.226,0.72-0.587l9.21-5.436c4.51-2.654,5.02-2.775,5.19-2.489l0.02,0.028a0.14,0.14,0,0,0,.24-0.142l-0.93-1.57a0.1,0.1,0,0,0-.16-0.031c-0.07.038-.13,0.077-0.08,0.173l0.14,0.232c0.28,0.478-.67,1.354-4.67,3.711l-8.89,5.244-0.01-.014,12.72-10.98a0.194,0.194,0,0,0,.1-0.24l-0.34-.573c-0.07-.11-0.17-0.085-0.28-0.021l-10.25,6.042c-4.5,2.654-5.01,2.775-5.18,2.488l-0.02-.027C3140.47,787.234,3140.41,787.272,3140.34,787.311Zm-3.41-7.375a0.105,0.105,0,0,0-.07.152l0.69,1.568a0.108,0.108,0,0,0,.16.065c0.07-.031.14-0.076,0.09-0.178l-0.08-.188c-0.23-.523.85-1.222,5.09-3.091l7.13-3.136c2.32-1.021,3.68-1.067,4.02-.3,0.32,0.725-.7,1.433-2.14,2.067l-12.6,5.545c-0.65.286-.87,0.349-0.92,0.233l-0.14-.319a0.123,0.123,0,0,0-.19-0.055,0.127,0.127,0,0,0-.07.167l1.02,2.308a0.115,0.115,0,0,0,.17.065,0.122,0.122,0,0,0,.08-0.178l-0.14-.319c-0.05-.116.15-0.237,0.8-0.523l11.9-5.239c1.91-.838,3.33-2.33,2.77-3.607-0.54-1.219-2.12-1.149-4.55-.076l-7.38,3.248c-4.78,2.1-5.31,2.163-5.44,1.858l-0.02-.029C3137.07,779.874,3137,779.905,3136.93,779.936Zm13.07-19.6a0.126,0.126,0,0,0-.13.152l0.07,0.343c0.02,0.124-.2.2-0.9,0.324l-15.21,2.779c-0.7.127-.93,0.137-0.96,0.013l-0.06-.343a0.122,0.122,0,0,0-.17-0.1,0.113,0.113,0,0,0-.1.148l0.36,1.964a0.162,0.162,0,0,0,.22.119l13.54-1.247,0.01,0.015-13.1,3.68a0.192,0.192,0,0,0-.17.208l0.36,1.949a0.115,0.115,0,0,0,.15.086c0.07-.014.15-0.027,0.13-0.136l-0.07-.359c-0.02-.109.17-0.177,0.87-0.3l10.53-1.923c5.16-.943,5.67-0.858,5.73-0.546v0.031a0.121,0.121,0,0,0,.17.1,0.131,0.131,0,0,0,.11-0.147l-0.3-1.606a0.106,0.106,0,0,0-.14-0.086c-0.08.014-.15,0.027-0.13,0.136l0.03,0.172c0.09,0.514-1.07.936-5.68,1.778l-10.6,1.937-0.01-.016,16.35-4.758c0.15-.043.24-0.108,0.22-0.2l-0.08-.484c-0.02-.093-0.1-0.111-0.28-0.095l-16.93,1.578-0.01-.031,15.49-2.829c0.7-.128.93-0.137,0.96-0.013l0.06,0.343a0.122,0.122,0,0,0,.17.1,0.113,0.113,0,0,0,.1-0.148l-0.45-2.479A0.114,0.114,0,0,0,3150,760.339Zm-0.31-5.446-5.74.3c-0.16.008-.2,0.058-0.2,0.106s0.03,0.094.21,0.084l0.38-.019c1.03-.054,5.25-0.05,5.35,1.819l0.01,0.221a0.1,0.1,0,0,1-.12.1l-8.64.447a0.1,0.1,0,0,1-.13-0.1V757.8c-0.03-.523,1.55-0.922,2.81-0.987l0.31-.016c0.17-.009.17-0.057,0.17-0.12,0-.048-0.03-0.078-0.18-0.07l-6.59.341c-0.17.009-.2,0.042-0.2,0.089,0.01,0.064.04,0.11,0.21,0.1l0.28-.015c1.27-.065,2.88.169,2.91,0.691v0.064a0.1,0.1,0,0,1-.12.1l-7.83.4a0.122,0.122,0,0,1-.15-0.1l-0.02-.237c-0.06-1.22,2.75-1.794,4.96-1.908l0.43-.022c0.18-.009.17-0.057,0.17-0.1s-0.03-.094-0.18-0.086l-5.6.289c-0.15.008-.17,0.057-0.17,0.105l0.21,4.117a0.109,0.109,0,0,0,.13.1c0.08,0,.16-0.008.15-0.119l-0.02-.364c0-.111.22-0.154,0.93-0.191l15.45-.8c0.71-.037.94-0.017,0.94,0.094l0.02,0.364c0.01,0.111.08,0.107,0.16,0.1a0.107,0.107,0,0,0,.12-0.117l-0.23-4.529C3149.87,754.931,3149.85,754.885,3149.69,754.893Zm-17.25-7.39a0.113,0.113,0,0,0-.14.1l-0.11,1.82a0.112,0.112,0,0,0,.12.118c0.08,0,.15.009,0.16-0.1l0.02-.253c0.03-.569,1.31-0.762,5.94-0.485l7.52,0.451v0.032l-13.69,1.577a0.175,0.175,0,0,0-.16.149l-0.11,1.914a0.108,0.108,0,0,0,.12.119c0.07,0,.15.009,0.16-0.1l0.02-.364c0-.111.21-0.13,0.92-0.087l10.68,0.64c5.21,0.313,5.71.5,5.69,0.834V753.9a0.12,0.12,0,0,0,.14.135,0.129,0.129,0,0,0,.14-0.119l0.11-1.819a0.112,0.112,0,0,0-.12-0.119c-0.08,0-.16-0.009-0.16.1l-0.02.269c-0.03.554-1.31,0.747-5.95,0.469l-10.3-.618v-0.016l16.69-2a0.186,0.186,0,0,0,.21-0.146l0.04-.665c0.01-.126-0.09-0.164-0.22-0.172l-11.87-.712c-5.21-.313-5.71-0.5-5.69-0.834v-0.031C3132.59,747.512,3132.51,747.508,3132.44,747.5Zm1.27-8.013a0.107,0.107,0,0,0-.14.087l-0.3,1.685a0.112,0.112,0,0,0,.1.147,0.121,0.121,0,0,0,.17-0.1l0.04-.2c0.1-.562,1.38-0.541,5.95.28l7.66,1.376c2.5,0.448,3.66,1.171,3.51,2-0.14.78-1.38,0.8-2.93,0.521l-13.55-2.434c-0.7-.125-0.92-0.2-0.9-0.322l0.06-.343a0.119,0.119,0,0,0-.12-0.151,0.125,0.125,0,0,0-.15.1l-0.45,2.481a0.112,0.112,0,0,0,.1.147,0.129,0.129,0,0,0,.18-0.1l0.06-.343c0.02-.125.25-0.116,0.95,0.009l12.8,2.3c2.05,0.367,4.06-.077,4.31-1.45,0.23-1.31-1.11-2.132-3.73-2.6l-7.94-1.426c-5.14-.923-5.61-1.169-5.55-1.5v-0.031C3133.86,739.517,3133.79,739.5,3133.71,739.49Zm21.8-8.963a0.121,0.121,0,0,0-.19.055l-0.14.319c-0.05.117-.28,0.054-0.93-0.23l-14.18-6.193c-0.65-.284-0.84-0.4-0.79-0.521l0.14-.319a0.125,0.125,0,0,0-.09-0.177,0.116,0.116,0,0,0-.17.065l-0.8,1.83a0.174,0.174,0,0,0,.12.227l11.93,6.525v0.014l-12.92-4.259a0.186,0.186,0,0,0-.26.079l-0.79,1.815a0.111,0.111,0,0,0,.07.152c0.07,0.031.14,0.061,0.19-.04l0.14-.334c0.05-.1.24-0.05,0.9,0.234l9.8,4.285c4.82,2.1,5.19,2.454,5.06,2.744l-0.01.029c-0.05.1,0.02,0.147,0.09,0.177a0.114,0.114,0,0,0,.16-0.065l0.66-1.5a0.111,0.111,0,0,0-.07-0.152c-0.07-.031-0.14-0.061-0.19.04l-0.07.16c-0.21.479-1.41,0.181-5.71-1.7l-9.87-4.315v-0.014l16.23,5.184c0.14,0.046.25,0.043,0.29-.044l0.2-.45c0.04-.088-0.02-0.147-0.18-0.233l-14.93-8.147,0.02-.029,14.43,6.305c0.65,0.284.85,0.4,0.8,0.521l-0.14.319c-0.05.1,0.02,0.147,0.09,0.177a0.107,0.107,0,0,0,.16-0.065l1.01-2.309A0.112,0.112,0,0,0,3155.51,730.527Zm2.79-4.7-4.94-2.966c-0.13-.078-0.19-0.064-0.22-0.023s-0.03.1,0.13,0.186l0.32,0.2c0.89,0.536,4.39,2.895,3.42,4.5l-0.11.19c-0.04.068-.09,0.055-0.16,0.016l-7.41-4.456a0.1,0.1,0,0,1-.05-0.16l0.02-.041c0.27-.448,1.8.1,2.89,0.757l0.26,0.156c0.15,0.092.18,0.051,0.21,0s0.02-.081-0.11-0.16l-5.65-3.4c-0.15-.091-0.19-0.077-0.22-0.037-0.03.055-.03,0.109,0.12,0.2l0.24,0.144c1.09,0.653,2.29,1.748,2.02,2.2l-0.03.054c-0.04.068-.09,0.056-0.16,0.017l-6.71-4.038a0.129,0.129,0,0,1-.08-0.173l0.13-.2c0.62-1.046,3.28.051,5.17,1.188l0.37,0.222c0.15,0.091.18,0.051,0.2,0.01s0.03-.095-0.1-0.173l-4.81-2.888c-0.13-.078-0.17-0.051-0.2-0.01l-2.12,3.531a0.111,0.111,0,0,0,.05.161c0.07,0.039.13,0.078,0.19-.017l0.19-.312c0.05-.1.27,0,0.87,0.361l13.26,7.971c0.61,0.365.79,0.51,0.73,0.605l-0.18.313c-0.06.1,0,.134,0.07,0.173a0.114,0.114,0,0,0,.17-0.03L3158.4,726C3158.43,725.959,3158.43,725.906,3158.3,725.827Zm-10.16-15.793a0.1,0.1,0,0,0-.16.011l-1.11,1.446a0.108,0.108,0,0,0,.03.166c0.06,0.046.12,0.092,0.19,0l0.15-.2c0.35-.453,1.52.105,5.2,2.931l5.97,4.587-0.02.025-12.21-6.363a0.172,0.172,0,0,0-.22.034l-1.17,1.521a0.108,0.108,0,0,0,.03.166c0.06,0.046.12,0.092,0.19,0l0.22-.289c0.07-.088.25,0.01,0.81,0.443l8.49,6.516c4.14,3.182,4.45,3.616,4.25,3.88l-0.02.025a0.122,0.122,0,0,0,.04.194,0.124,0.124,0,0,0,.18-0.024l1.11-1.446a0.1,0.1,0,0,0-.04-0.165c-0.06-.047-0.12-0.093-0.18,0l-0.17.214c-0.34.44-1.5-.118-5.18-2.944l-8.19-6.285,0.01-.013,14.94,7.692c0.11,0.064.2,0.073,0.25,0l0.41-.528c0.08-.1.01-0.187-0.09-0.265l-9.43-7.242c-4.14-3.181-4.45-3.616-4.24-3.88l0.02-.025C3148.26,710.127,3148.2,710.08,3148.14,710.034Zm5.54-5.922a0.11,0.11,0,0,0-.17-0.009l-1.19,1.226a0.117,0.117,0,0,0,0,.18,0.125,0.125,0,0,0,.2.015l0.14-.147c0.4-.409,1.45.328,4.78,3.566l5.58,5.433c1.82,1.77,2.37,3.018,1.79,3.619-0.56.568-1.6-.111-2.72-1.208l-9.87-9.609c-0.51-.5-0.65-0.678-0.56-0.768l0.24-.25a0.14,0.14,0,0,0-.2-0.195l-1.76,1.8a0.117,0.117,0,0,0,0,.18,0.126,0.126,0,0,0,.2.015l0.25-.25c0.08-.091.27,0.046,0.78,0.541l9.32,9.078c1.49,1.451,3.41,2.211,4.38,1.212,0.93-.954.27-2.389-1.63-4.247l-5.78-5.627c-3.75-3.645-4-4.113-3.77-4.351l0.02-.023C3153.79,704.219,3153.74,704.166,3153.68,704.112Z" transform="translate(-3132 -685.438)" style="fill: rgb(0, 0, 0);"></path></svg>